<svg xmlns="http://www.w3.org/2000/svg" width="162" height="214"><defs><linearGradient id="a" x1="35.548%" x2="58.837%" y1="24.586%" y2="69.093%"><stop offset="0%" stop-color="#909CF7"/><stop offset="100%" stop-color="#4B38D8"/></linearGradient><linearGradient id="b" x1="19.224%" x2="50.568%" y1="14.939%" y2="59.056%"><stop offset="0%" stop-color="#909CF7"/><stop offset="100%" stop-color="#4B38D8"/></linearGradient></defs><g fill="none" fill-rule="nonzero"><path fill="url(#a)" d="M161.592 80.616c-3.897 37.293-36.546 65.011-74.09 65.011H73.044v34.133c0 18.91-15.35 34.24-34.286 34.24H12c-6.627 0-12-5.365-12-11.984v-70.272l17.993-25.212a12.018 12.018 0 0 1 14.418-4.1l10.235 4.28a11.984 11.984 0 0 0 14.374-4.085l23.99-33.588a11.94 11.94 0 0 1 14.337-4.065l19.714 8.276a11.962 11.962 0 0 0 14.365-4.076l23.07-32.323c7.231 12.697 10.766 27.78 9.096 43.765Z"/><path fill="url(#b)" d="M11.757 102.979c2.94-4.12 7.218-7.288 12.193-8.244 3.879-.745 7.703-.354 11.24 1.125l10.232 4.28c.59.247 1.21.372 1.845.372a4.85 4.85 0 0 0 3.938-2.028l23.55-32.973c2.94-4.116 7.216-7.28 12.188-8.233 3.865-.74 7.666-.352 11.172 1.12l19.714 8.276c.595.25 1.22.376 1.86.376 1.554 0 3.02-.753 3.921-2.016l24.712-34.624C135.097 12 113.5 0 89.089 0H12C5.373 0 0 5.365 0 11.984v107.47l11.757-16.475Z"/></g></svg>